PathFileType	4	(X/Y/Z)	OpenSim_Sub10_EMGBaseline_Gyro.trc
DataRate	CameraRate	NumFrames	NumMarkers	Units	OrigDataRate	OrigDataStartFrame	OrigNumFrames
100	100	13	8	m	100	1026	8201
Frame#	Time	torso_imu_offset_imu	pelvis_imu_offset_imu	tibia_r_imu_offset_imu	femur_r_imu_offset_imu	tibia_l_imu_offset_imu	femur_l_imu_offset_imu	toes_r_imu_offset_imu	toes_l_imu_offset_imu
				X1	Y1	Z1	X2	Y2	Z2	X3	Y3	Z3	X4	Y4	Z4	X5	Y5	Z5	X6	Y6	Z6	X7	Y7	Z7	X8		Y8	Z8	

1026	10.25000000	0.07084200	-0.21319800	0.05876000	-0.00269500	0.11383300	-0.08220500	-0.04027600	0.04462400	-0.60709100	0.12924300	-0.02946100	-0.87803100	-0.13539900	0.87640400	-5.98029500	-0.48971200	-0.05991200	0.14263400	0.13229100	-0.06597800	-0.21954300	0.36521300	4.46037400	-1.51955700
1027	10.26000000	0.03377000	-0.20043100	0.05987800	-0.07872300	0.04678500	-0.08118000	0.04122600	0.05424600	-0.65394900	0.06786700	-0.06038400	-0.85461900	0.16576600	1.03449900	-5.73465000	-0.37560000	-0.08889200	0.33030200	0.08706600	-0.08750900	-0.23315100	0.29980600	4.47558100	-1.91636900
1028	10.27000000	-0.01932200	-0.18449600	0.04032300	-0.14725400	0.01790000	-0.07620300	0.03369000	0.04727400	-0.73538700	-0.02355800	-0.07417800	-0.82660400	-0.20150400	1.19502300	-5.30394600	-0.21888800	-0.02843400	0.53972300	0.11592400	-0.09255700	-0.24861600	0.80326600	4.11363800	-2.28667000
1029	10.28000000	-0.06066300	-0.18130200	0.01738700	-0.19247500	0.01447900	-0.07748900	-0.01882800	0.04535600	-0.80091000	-0.12561100	-0.06426000	-0.79540400	-0.73626800	1.02368600	-4.60958800	-0.03292800	0.11617200	0.71594700	0.08427000	-0.13719800	-0.27462800	0.45406300	3.71762900	-2.48834900
1030	10.29000000	-0.08814400	-0.17786700	-0.00319000	-0.20446400	0.00621100	-0.06797400	-0.07178800	0.06064800	-0.83774800	-0.19453500	-0.03445200	-0.74840800	-1.20890700	0.79471100	-3.86244400	0.10969400	0.32270900	0.82929700	0.12031500	-0.12948300	-0.28165600	0.00715900	3.39312000	-2.53065900
1031	10.30000000	-0.11428200	-0.19363100	-0.03384800	-0.21007400	-0.02893100	-0.06250200	-0.12457400	0.06899100	-0.87356900	-0.22703200	0.01325100	-0.70426400	-1.64660800	0.81733700	-3.27510500	0.26148300	0.47653500	0.92635600	0.09828100	-0.16066000	-0.30348500	0.03157200	3.00986000	-2.46269300
1032	10.31000000	-0.13192100	-0.19069300	-0.04900800	-0.22388700	-0.09812500	-0.04830000	-0.16862500	0.07171200	-0.93867700	-0.23339500	0.04979000	-0.65350400	-1.74419800	0.96577100	-2.79489600	0.31187100	0.51614800	0.96446900	0.12512800	-0.18857400	-0.31493500	-0.28681100	2.59743100	-2.24623300
1033	10.32000000	-0.14001700	-0.20943700	-0.05801400	-0.25385500	-0.17705600	-0.05192500	-0.17974800	0.09482600	-1.02572600	-0.22965800	0.07200600	-0.59462500	-1.56736600	1.04412000	-2.31506400	0.27154200	0.41205100	0.76070400	0.05138600	-0.23979900	-0.33778200	-0.85347800	2.18320800	-1.96365900
1034	10.33000000	-0.14751100	-0.19289400	-0.05186000	-0.30864900	-0.24040200	-0.04942000	-0.19993200	0.08096400	-1.13019900	-0.22792500	0.06166600	-0.53675400	-1.52407300	0.86191300	-1.79145100	0.13568300	0.16366800	0.31287600	0.04164300	-0.28730200	-0.40048000	-0.92109300	1.63118100	-1.72102600
1035	10.34000000	-0.14248800	-0.20117500	-0.05120700	-0.38077000	-0.26735700	-0.06004300	-0.25274700	0.05710000	-1.21309400	-0.24844300	0.03526600	-0.49302500	-1.36194200	0.41525300	-1.24879100	-0.15531100	-0.11918700	-0.29529800	0.10205400	-0.33022200	-0.44506900	-0.75106300	1.11155000	-1.54210300
1036	10.35000000	-0.14968200	-0.19707100	-0.04841500	-0.44888300	-0.27526100	-0.08459900	-0.30547600	0.05443400	-1.28764300	-0.31694000	0.01183800	-0.44261700	-1.15903700	0.03110700	-0.60856400	-0.50562500	-0.34988300	-0.81332400	0.04137200	-0.38843200	-0.47559000	-0.67805000	0.63501000	-1.38277500
1037	10.36000000	-0.15591500	-0.17416900	-0.04921500	-0.49395900	-0.29964400	-0.11338800	-0.40034700	0.06926500	-1.36096900	-0.43750800	-0.01256200	-0.37456800	-1.13494300	-0.10583700	0.04497800	-0.66355200	-0.53925600	-1.16461000	0.01949900	-0.45438400	-0.51998300	-0.51168000	0.11498800	-1.28655500
1038	10.37000000	-0.17690000	-0.14227700	-0.06095800	-0.54079000	-0.36772200	-0.15307200	-0.50464100	0.07045000	-1.45504200	-0.58468900	-0.04746000	-0.29753400	-1.21745600	-0.15542800	0.48423600	-0.61857700	-0.70907100	-1.34464700	0.07894600	-0.55307400	-0.56883600	-0.33460400	-0.32570000	-1.26138100
